<?xml version="1.0" encoding="UTF-8" standalone="no"?>
<svg
   xmlns:dc="http://purl.org/dc/elements/1.1/"
   xmlns:cc="http://creativecommons.org/ns#"
   xmlns:rdf="http://www.w3.org/1999/02/22-rdf-syntax-ns#"
   xmlns:svg="http://www.w3.org/2000/svg"
   xmlns="http://www.w3.org/2000/svg"
   xmlns:sodipodi="http://sodipodi.sourceforge.net/DTD/sodipodi-0.dtd"
   xmlns:inkscape="http://www.inkscape.org/namespaces/inkscape"
   id="prefix__logo_taskulu"
   width="199px"
   height="42px"
   data-name="logo/taskulu"
   class="fa-logo"
   viewBox="0 0 414 97"
   version="1.1"
   sodipodi:docname="logosvg.svg"
   inkscape:version="1.0.2 (e86c870879, 2021-01-15, custom)">
  <metadata
     id="metadata23">
    <rdf:RDF>
      <cc:Work
         rdf:about="">
        <dc:format>image/svg+xml</dc:format>
        <dc:type
           rdf:resource="http://purl.org/dc/dcmitype/StillImage" />
      </cc:Work>
    </rdf:RDF>
  </metadata>
  <sodipodi:namedview
     pagecolor="#ffffff"
     bordercolor="#666666"
     borderopacity="1"
     objecttolerance="10"
     gridtolerance="10"
     guidetolerance="10"
     inkscape:pageopacity="0"
     inkscape:pageshadow="2"
     inkscape:window-width="1326"
     inkscape:window-height="1028"
     id="namedview21"
     showgrid="false"
     inkscape:zoom="1.9629187"
     inkscape:cx="101.0221"
     inkscape:cy="107.55948"
     inkscape:window-x="1799"
     inkscape:window-y="982"
     inkscape:window-maximized="0"
     inkscape:current-layer="g18"
     inkscape:document-rotation="0" />
  <defs
     id="defs4">
    <style
       id="style2">
            .prefix__cls-1{fill:#191970}
        </style>
  </defs>
  <g
     fill-rule="nonzero"
     id="g18"
     transform="translate(-5.0838027,-0.20389611)">
    <path
       d="m 341.4,90.8 c -5.1,0 -9.4,-2 -13.5,-4.8 -6.1,-4.1 -11.6,-8.9 -16.7,-14.1 -7.1,-7.3 -13.4,-15.3 -18.8,-23.9 -2.6,-4.1 -4.3,-8.5 -4,-13.4 0.3,-5.8 3.4,-10.7 9.3,-12 3.1,-0.7 6.1,0 8.9,1.3 3.6,1.5 6.6,3.9 9.6,6.4 4.5,3.8 9,7.5 13.6,11 5.7,4.3 11.8,4.5 18.2,1.2 5.7,-2.9 10.9,-6.6 15.7,-10.7 5.4,-4.6 10.6,-9.5 15.8,-14.3 4.1,-3.8 8.1,-7.8 12.2,-11.5 3,-2.7 6.6,-4.7 10.7,-5.5 6.4,-1.2 10.2,3.7 10.9,8 0.9,5.9 -1.1,11.1 -4.1,16 -7.2,11.7 -15.3,22.7 -24.2,33.2 -8,9.5 -16.4,18.4 -26.4,25.9 -3.9,2.9 -7.9,5.7 -12.9,6.6 -1.2,0.4 -2.8,0.5 -4.3,0.6 z"
       id="Path"
       fill="#60FEFA"
       style="fill:#60fefa;fill-opacity:1"
       inkscape:export-xdpi="106.85"
       inkscape:export-ydpi="106.85" />
    <path
       class="prefix__cls-1"
       d="m 64.3,88.2 c 9.2,-1.9 17.5,-4.8 21.6,-14.5 -0.7,0 -1.2,0 -1.7,0 -3,-0.1 -6,0 -9,-0.5 -8,-1.4 -11.8,-6.8 -11,-15 0.5,-4.7 1.9,-9 5.1,-12.5 6.7,-7.3 17.4,-5.8 21.9,2.9 2.2,4.3 3.1,9 3.6,13.8 0.1,0.6 0.1,1.1 0.2,1.7 0.2,0 0.4,0.1 0.5,0.1 9.2,0 18.5,0.1 27.7,-0.1 2.4,0 5,-0.4 7.3,-1.1 5.5,-1.6 7.1,-6.6 3.3,-11 -2.4,-2.8 -5.3,-5.2 -8.1,-7.6 -2.3,-2.1 -4.9,-3.8 -7.2,-5.9 -2.9,-2.6 -4.4,-5.9 -3.3,-9.9 0.9,-3.1 3.2,-4.9 6.1,-6 7.8,-2.9 15.6,-5.8 23.3,-8.6 2.2,-0.8 4.3,-1.6 6.6,-2.5 0,3 0,5.9 0,8.7 0,0.3 -0.5,0.7 -0.9,0.9 -7,2.6 -14,5.2 -21,7.8 -1.7,0.6 -3.3,1.2 -5.2,1.9 2.2,1.9 4.3,3.6 6.4,5.4 2.7,2.4 5.5,4.8 8.1,7.3 3.1,3 5.2,6.6 6.6,10.7 1,3 2.5,5.7 5,7.7 1.8,1.4 3.9,2.2 6.2,2.2 2,0 4,0 6,-0.2 4.2,-0.5 6,-2.5 6.2,-6.7 0.1,-2.5 -0.2,-4.9 -0.3,-7.4 0,-0.7 -0.1,-1.3 -0.1,-2.1 1.5,-0.2 3,-0.4 4.4,-0.6 1.4,-0.2 2.8,-0.3 4.4,-0.5 0.2,2.7 0.4,5.3 0.6,7.8 0.1,1.5 0.2,3 0.5,4.5 1,4.9 7.2,7 11.1,3.7 1.6,-1.3 2.1,-3.1 2.1,-5.1 0,-3 -0.2,-6 -0.3,-9 0,-0.3 0,-0.6 0,-1 2.9,-0.3 5.7,-0.7 8.7,-1.1 0.1,1 0.2,1.9 0.2,2.9 0.2,3.1 0.4,6.1 0.7,9.2 0.4,3.4 2.5,5.4 5.4,5.4 2.6,0.1 4.4,-1.1 4.9,-3.7 0.4,-2.5 0.4,-5 0.4,-7.5 0,-2 -0.2,-4.1 -0.4,-6.2 3,-0.4 5.8,-0.7 8.8,-1 0.2,2.9 0.4,5.6 0.6,8.4 0.1,1.6 0.2,3.3 0.5,4.9 0.6,3.3 2.7,5.1 6,5.1 7.2,0.1 14.3,0 21.5,0 1.1,0 2.2,-0.2 3.2,-0.4 3,-0.7 4.5,-2.4 4.9,-5.4 C 257,53 256.2,48 255.1,43 255,42.7 255,42.4 254.9,42 c 2.8,-0.7 5.6,-1.4 8.7,-2.2 0.6,3.2 1.3,6.3 1.8,9.5 0.5,3.7 0.5,7.3 -0.1,11 -1.3,6.9 -5.5,11.2 -12.6,12.5 -2.2,0.4 -4.4,0.6 -6.7,0.6 -6.2,0.1 -12.3,0.1 -18.5,0 -1.4,0 -2.8,-0.2 -4.2,-0.4 -2.8,-0.6 -5.1,-2 -6.8,-4.6 -2.5,3.7 -6.1,5.1 -10.3,5 -4.3,-0.1 -7.8,-1.6 -10.3,-5.4 -3.1,3.6 -6.9,5.4 -11.6,5.3 -4.5,0 -8.6,-1.1 -11.4,-5.2 -3.5,4.2 -8.3,5.2 -13.4,5.2 -2.5,0 -5,-0.1 -7.5,-0.6 -3.7,-0.7 -6.8,-2.8 -9.3,-5.5 -0.3,-0.3 -0.5,-0.6 -0.8,-0.9 -4.9,5.6 -11.4,6.7 -18.2,6.8 -9.3,0.2 -18.6,0.1 -28,0.1 -1,0 -1.4,0.3 -1.7,1.3 -2.4,9.5 -8.7,15.5 -17.6,19 -2.9,1.1 -5.9,1.8 -8.9,2.7 -1,-2.4 -2.1,-5.1 -3.2,-8 z m 22,-24.1 C 86,61 85.6,57.9 84.2,54.9 c -0.5,-1 -1.2,-1.9 -2,-2.7 -1.9,-1.9 -4.8,-1.8 -6.6,0.2 -1.7,1.8 -2.5,4.1 -2.5,6.5 -0.1,3.1 1.2,4.7 4.2,5 2.9,0.4 5.9,0.2 9,0.2 z"
       id="path8"
       fill="#1A1A70"
       style="fill:#191970;fill-opacity:1"
       inkscape:export-xdpi="106.85"
       inkscape:export-ydpi="106.85" />
    <path
       class="prefix__cls-1"
       d="m 262.6,32.3 c -9.5,0 -18.9,0 -28.4,0 0,-2.9 0,-5.8 0,-8.8 9.4,0 18.9,0 28.4,0 0,2.9 0,5.8 0,8.8 z"
       id="path10"
       fill="#191970"
       style="fill:#191970;fill-opacity:1"
       inkscape:export-xdpi="106.85"
       inkscape:export-ydpi="106.85" />
    <path
       class="prefix__cls-1"
       d="M 4.1,96.6 C 3,93.7 1.9,91 0.8,88.2 2.2,87.9 3.6,87.6 4.9,87.3 10,86 14.7,83.9 18.4,80 c 1.7,-1.8 3.2,-4.2 3.7,-6.3 -0.5,0 -1,0 -1.5,0 C 17,73.7 13.5,73.8 10,72.9 3.9,71.2 0.7,67 0.6,60.6 c -0.1,-4.7 1,-9.1 3.7,-13 4,-5.8 10.7,-8 16.7,-5.4 4,1.7 6.3,5.1 7.8,9 1.6,4.2 2.3,8.5 2.7,13.1 3.6,-0.2 7.2,0.5 10.7,-0.6 3.1,-1 3.8,-3.6 4.1,-6.4 0.1,-0.8 0.1,-1.6 0.1,-2.4 0,-12.7 0,-25.4 0,-38.1 0,-0.4 0,-0.9 0,-1.4 3,0 6,0 9,0 0,0.4 0.1,0.7 0.1,1.1 0,13 0,26 0,39 0,2.4 -0.3,4.9 -0.9,7.2 -1.5,6.4 -5.7,10 -12.2,10.7 -3.4,0.4 -6.9,0.3 -10.3,0.4 -0.9,0 -1.2,0.2 -1.4,1.1 -2.5,10.1 -9.3,16.2 -18.9,19.6 -2.5,0.8 -5,1.4 -7.7,2.1 z M 22.9,64.4 C 22.7,63 22.6,61.8 22.4,60.6 22,58 21.4,55.4 19.7,53.2 17.3,50 13.6,50.1 11.3,53.3 c -1.1,1.6 -1.6,3.4 -1.8,5.4 -0.2,2.9 1,4.9 3.9,5.2 3.2,0.4 6.3,0.4 9.5,0.5 z"
       id="path12"
       fill="#1A1A71"
       style="fill:#191970;fill-opacity:1"
       inkscape:export-xdpi="106.85"
       inkscape:export-ydpi="106.85" />
  </g>
</svg>
